<?xml version="1.0" encoding="UTF-8"?>
<!DOCTYPE svg PUBLIC "-//W3C//DTD SVG 1.1//EN" "http://www.w3.org/Graphics/SVG/1.1/DTD/svg11.dtd">
<svg
        height="128px"
        viewBox="0 0 128 128"
        width="128px"
        version="1.1"
        id="svg20"
        xmlns="http://www.w3.org/2000/svg"
        xmlns:svg="http://www.w3.org/2000/svg">
    <defs
            id="defs20"/>
    <path
            d="m 28 8 h 50 l 30.042969 29.917969 v 74.058593 c 0 4.433594 -3.609375 8.023438 -8.042969 8.023438 h -72 c -4.433594 0 -8 -3.566406 -8 -8 v -96 c 0 -4.433594 3.566406 -8 8 -8 z m 0 0"
            fill="#f6f5f4"
            id="path1"/>
    <path
            d="m 78 8 v 22 c 0 4.433594 3.609375 7.921875 8.042969 7.921875 l 22 -0.003906 z m 0 0"
            fill="#deddda"
            id="path2"/>
    <g
            id="g21"
            transform="rotate(10,14.524837,62.911612)">
        <path
                id="rect20"
                style="fill:#d45500;stroke-width:1.49735"
                d="m 80,80 h 12 v 20 l -6,-6 -6,6 z"/>
        <path
                id="path21"
                style="fill:#ff6600;stroke-width:1.26021"
                d="M 81,80 H 91 V 97 L 86,91.9 81,97 Z"/>
    </g>
    <g
            id="g23"
            transform="rotate(-10,167.03382,85.301881)">
        <path
                id="path22"
                style="fill:#d45500;stroke-width:1.49735"
                d="m 80,80 h 12 v 20 l -6,-6 -6,6 z"/>
        <path
                id="path23"
                style="fill:#ff6600;stroke-width:1.26021"
                d="M 81,80 H 91 V 97 L 86,91.9 81,97 Z"/>
    </g>
    <g
            id="g25"
            transform="translate(36,30)">
        <path
                id="path20-3"
                style="fill:#aa0000;stroke-width:2.04022"
                d="m 60.280169,67.677246 c -0.912427,-0.306513 -2.475218,0.699428 -3.609911,0.959618 -0.941282,0.17098 -0.25683,-0.07121 -0.857777,0.766174 -0.409968,0.8816 -1.982066,2.589388 -1.543079,3.07441 -1.144171,-0.626144 -2.591132,-0.597622 -3.861754,-0.931371 -0.679861,-0.357386 -0.07517,-0.04332 -0.961495,0.268891 -0.795841,0.5585 -3.011218,1.251441 -2.873549,1.890969 -0.677812,-1.114329 -1.945177,-1.813115 -2.878693,-2.737467 -0.410084,-0.649423 -0.04344,-0.0751 -0.967124,-0.247877 -0.968471,0.08576 -3.233513,-0.421826 -3.434055,0.20086 -0.02983,-1.303947 -0.778015,-2.5428 -1.124288,-3.810063 -0.03043,-0.76747 -5.9e-5,-0.08676 -0.713614,-0.698235 -0.881597,-0.409972 -2.589394,-1.982067 -3.074407,-1.54307 0.626139,-1.144175 0.597618,-2.591139 0.931369,-3.861761 0.357383,-0.679863 0.04333,-0.07517 -0.268892,-0.961495 -0.558501,-0.795842 -1.251447,-3.011217 -1.890975,-2.873549 1.114336,-0.677813 1.813119,-1.945179 2.737466,-2.878694 0.649435,-0.410086 0.0751,-0.04343 0.247882,-0.967124 -0.08576,-0.96847 0.421823,-3.233514 -0.200859,-3.434054 1.303949,-0.02983 2.542796,-0.778014 3.810061,-1.124289 0.76747,-0.03043 0.08676,-6.3e-5 0.698234,-0.713614 0.409968,-0.881598 1.982067,-2.589393 1.543079,-3.074407 1.144171,0.626138 2.591133,0.597619 3.861755,0.931369 0.679862,0.357383 0.07517,0.04333 0.961495,-0.268891 0.795841,-0.558502 3.011216,-1.251448 2.873549,-1.890975 0.677811,1.114336 1.945177,1.813119 2.878693,2.737466 0.410085,0.649434 0.04343,0.0751 0.967124,0.24788 0.96847,-0.08576 3.233514,0.421824 3.434055,-0.200857 0.02983,1.303949 0.778013,2.542796 1.124287,3.810061 0.03043,0.767469 6.4e-5,0.08676 0.713615,0.698233 0.881598,0.409968 2.589393,1.982067 3.074406,1.54308 -0.626138,1.144169 -0.597618,2.591132 -0.931368,3.861753 -0.357384,0.679862 -0.04333,0.07517 0.268891,0.961495 0.558501,0.795842 1.251447,3.011216 1.890975,2.873549 -1.114336,0.677813 -1.813119,1.945179 -2.737466,2.878695 -0.649434,0.410085 -0.0751,0.04343 -0.247881,0.967123 0.08265,1.073092 -0.395327,2.86154 0.160251,3.546167 z"/>
        <g
                id="g24">
            <path
                    id="path20"
                    style="fill:#d40000;stroke-width:1.90421"
                    d="m 59.470063,67.080714 c -0.851598,-0.286079 -2.310202,0.6528 -3.36925,0.895643 -0.878529,0.159582 -0.239708,-0.06647 -0.800591,0.715097 -0.382637,0.822826 -1.849929,2.416762 -1.440208,2.869449 -1.067892,-0.584401 -2.41839,-0.557781 -3.604303,-0.86928 -0.634537,-0.33356 -0.07016,-0.04044 -0.897395,0.250965 -0.742786,0.521267 -2.81047,1.168011 -2.681979,1.764904 -0.632625,-1.04004 -1.815499,-1.69224 -2.686781,-2.554969 -0.382745,-0.606128 -0.04054,-0.07009 -0.902649,-0.231352 -0.903906,0.08004 -3.017945,-0.393704 -3.205118,0.187469 -0.02785,-1.217016 -0.726147,-2.373279 -1.049336,-3.556058 -0.0284,-0.716305 -5.5e-5,-0.08098 -0.666039,-0.651686 -0.822824,-0.382641 -2.416768,-1.849929 -2.869447,-1.440199 0.584397,-1.067896 0.557778,-2.418396 0.869278,-3.60431 0.333557,-0.634539 0.04044,-0.07016 -0.250966,-0.897396 -0.521268,-0.742785 -1.168017,-2.810469 -1.76491,-2.681979 1.040047,-0.632625 1.692245,-1.8155 2.554969,-2.686781 0.606139,-0.382746 0.0701,-0.04054 0.231356,-0.902649 -0.08004,-0.903905 0.393701,-3.017946 -0.187468,-3.205117 1.217019,-0.02784 2.373276,-0.726146 3.556057,-1.049336 0.716305,-0.0284 0.08097,-5.9e-5 0.651684,-0.66604 0.382637,-0.822825 1.849929,-2.416767 1.440208,-2.869446 1.067892,0.584395 2.418391,0.557777 3.604304,0.869277 0.634538,0.333558 0.07015,0.04044 0.897396,-0.250965 0.742785,-0.521268 2.810468,-1.168018 2.681979,-1.76491 0.632624,1.040047 1.815499,1.692244 2.68678,2.554968 0.382747,0.606139 0.04054,0.0701 0.902649,0.231356 0.903905,-0.08004 3.017947,0.393702 3.205118,-0.187468 0.02784,1.21702 0.726145,2.373277 1.049335,3.556058 0.0284,0.716304 5.9e-5,0.08097 0.66604,0.651684 0.822825,0.382637 2.416767,1.849929 2.869446,1.440208 -0.584395,1.067891 -0.557777,2.41839 -0.869277,3.604303 -0.333558,0.634538 -0.04044,0.07015 0.250965,0.897395 0.521268,0.742786 1.168018,2.810469 1.76491,2.681979 -1.040047,0.632625 -1.692244,1.8155 -2.554968,2.686782 -0.606139,0.382746 -0.0701,0.04054 -0.231355,0.902648 0.07714,1.001553 -0.368973,2.670771 0.149566,3.309756 z"/>
        </g>
    </g>
    <g
            id="g26"
            transform="matrix(0.61283555,-0.51423009,0.51423009,0.61283555,2.5306593,54.311764)">
        <rect
                style="fill:#338000;stroke-width:1.44463"
                id="rect25"
                width="10"
                height="30"
                x="32"
                y="37.798447"
                rx="4"
                ry="4"/>
        <rect
                style="fill:#338000;stroke-width:1.82733"
                id="rect26"
                width="10"
                height="48"
                x="57.798447"
                y="-80"
                transform="rotate(90)"
                rx="4"
                ry="4"/>
    </g>
</svg>
